{"title":"Rio 2 2014 720p BluRay x264 Felony DUAL BRENYS","uid":10480560,"size":4309835336,"categoryP":"video","categoryS":"hd___movies","magnet":"?xt=urn:btih:01013c8c3bc44ccb7ee179727bc57b381384dcb7&amp;dn=Rio+2+2014+720p+BluRay+x264+Felony+DUAL+BRENYS&amp;tr=udp%3A%2F%2Ftracker.openbittorrent.com%3A80&amp;tr=udp%3A%2F%2Fopen.demonii.com%3A1337&amp;tr=udp%3A%2F%2Ftracker.coppersurfer.tk%3A6969&amp;tr=udp%3A%2F%2Fexodus.desync.com%3A6969","seeders":2,"leechers":1,"uploader":"Alemao99","files":5,"time":1404399239,"description":"It's a jungle out there for Blu, Jade and her three children in RIO 2, after they leave the wonderful city to venture on a trip to Brazil to get on Amazon, for a family reunion. Away from home, in an unfamiliar place, Blu will have to face his greatest fear - his father - while seeking to escape the vengeance of Nigel plan. All the favorite characters from RIO are back, and now, new voices and new artists are part of the cast. \n\nTitle in Brazil: Rio 2 \nOriginal title: Rio 2 \nRelease Year: 2014 \nGenre: Animation \nCountry of Origin: USA \nDuration: 101 minutes \nDirected by: Carlos Saldanha \nIMDB: http://www.imdb.com/title/tt2357291/ \n\nSize: 4.01 GB \nFile Extension:. MKV \nVideo Quality: Blu-Ray \nVideo codec: H.264 / AVC \nAudio Codec: AC3/DTS \nResolution: 1280 x 536 \nAudio Language: Portuguese / English \nSubtitles: Portuguese\n\n\nFormat                                   : Matroska\nFormat version                           : Version 4 / Version 2\nFile size                                : 4.01 GiB\nDuration                                 : 1h 41mn\nOverall bit rate                         : 5 679 Kbps\nMovie name                               : Rio.2.2014.720p.BluRay.x264.Felony.DUAL-BRENYS\nEncoded date                             : UTC 2014-07-02 02:17:51\nWriting application                      : mkvmerge v6.3.0 ('You can't stop me!') built on Jun 27 2013 22:06:07\nWriting library                          : libebml v1.3.0 + libmatroska v1.4.0\n\nVideo\nID                                       : 1\nFormat                                   : AVC\nFormat/Info                              : Advanced Video Codec\nFormat profile                           : &lt;a class=&quot;__cf_email__&quot; href=&quot;/cdn-cgi/l/email-protection&quot; data-cfemail=&quot;0840616f6048443c2639&quot;&gt;[email&amp;#160;protected]&lt;/a&gt;&lt;script cf-hash='f9e31' type=&quot;text/javascript&quot;&gt;\n/* &lt;![CDATA[ */!function(){try{var t=&quot;currentScript&quot;in document?document.currentScript:function(){for(var t=document.getElementsByTagName(&quot;script&quot;),e=t.length;e--;)if(t[e].getAttribute(&quot;cf-hash&quot;))return t[e]}();if(t&amp;&amp;t.previousSibling){var e,r,n,i,c=t.previousSibling,a=c.getAttribute(&quot;data-cfemail&quot;);if(a){for(e=&quot;&quot;,r=parseInt(a.substr(0,2),16),n=2;a.length-n;n+=2)i=parseInt(a.substr(n,2),16)^r,e+=String.fromCharCode(i);e=document.createTextNode(e),c.parentNode.replaceChild(e,c)}}}catch(u){}}();/* ]]&gt; */&lt;/script&gt;\nFormat settings, CABAC                   : Yes\nFormat settings, ReFrames                : 5 frames\nCodec ID                                 : V_MPEG4/ISO/AVC\nDuration                                 : 1h 41mn\nBit rate                                 : 2 968 Kbps\nNominal bit rate                         : 3 118 Kbps\nWidth                                    : 1 280 pixels\nHeight                                   : 536 pixels\nDisplay aspect ratio                     : 2.40:1\nFrame rate                               : 23.976 fps\nColor space                              : YUV\nChroma subsampling                       : 4:2:0\nBit depth                                : 8 bits\nScan type                                : Progressive\nBits/(Pixel*Frame)                       : 0.180\nStream size                              : 2.10 GiB (52%)\nWriting library                          : x264 core 142 r2431 ac76440\nEncoding settings                        : cabac=1 / ref=5 / deblock=1:0:0 / analyse=0x3:0x133 / me=umh / subme=8 / psy=1 / psy_rd=1.00:0.00 / mixed_ref=1 / me_range=16 / chroma_me=1 / trellis=1 / 8x8dct=1 / cqm=0 / deadzone=21,11 / fast_pskip=0 / chroma_qp_offset=-2 / threads=12 / lookahead_threads=2 / sliced_threads=0 / nr=0 / decimate=1 / interlaced=0 / bluray_compat=0 / constrained_intra=0 / bframes=3 / b_pyramid=2 / b_adapt=2 / b_bias=0 / direct=3 / weightb=1 / open_gop=0 / weightp=2 / keyint=250 / keyint_min=23 / scenecut=40 / intra_refresh=0 / rc_lookahead=50 / rc=2pass / mbtree=1 / bitrate=3118 / ratetol=1.0 / qcomp=0.60 / qpmin=0 / qpmax=69 / qpstep=4 / cplxblur=20.0 / qblur=0.5 / ip_ratio=1.40 / aq=1:1.00\nDefault                                  : Yes\nForced                                   : No\n\nAudio #1\nID                                       : 2\nFormat                                   : AC-3\nFormat/Info                              : Audio Coding 3\nMode extension                           : CM (complete main)\nFormat settings, Endianness              : Big\nCodec ID                                 : A_AC3\nDuration                                 : 1h 41mn\nBit rate mode                            : Constant\nBit rate                                 : 448 Kbps\nChannel(s)                               : 6 channels\nChannel positions                        : Front: L C R, Side: L R, LFE\nSampling rate                            : 48.0 KHz\nBit depth                                : 16 bits\nCompression mode                         : Lossy\nStream size                              : 324 MiB (8%)\nTitle                                    : Portugues AC3 5.1- BRENYS\nLanguage                                 : Portuguese\nDefault                                  : Yes\nForced                                   : No\n\nAudio #2\nID                                       : 3\nFormat                                   : DTS\nFormat/Info                              : Digital Theater Systems\nFormat profile                           : ES\nCodec ID                                 : A_DTS\nDuration                                 : 1h 41mn\nBit rate mode                            : Constant\nBit rate                                 : 1 510 Kbps\nChannel(s)                               : 6 channels\nChannel positions                        : Front: L C R, Side: L R, LFE\nSampling rate                            : 48.0 KHz\nBit depth                                : 24 bits\nCompression mode                         : Lossy\nStream size                              : 1.07 GiB (27%)\nLanguage                                 : English\nDefault                                  : No\nForced                                   : No\n\n\n\nSEED PLEASE\n\nENJOY...","torrent":{"xt":"urn:btih:01013c8c3bc44ccb7ee179727bc57b381384dcb7","amp;dn":"Rio+2+2014+720p+BluRay+x264+Felony+DUAL+BRENYS","amp;tr":["udp%3A%2F%2Ftracker.openbittorrent.com%3A80","udp%3A%2F%2Fopen.demonii.com%3A1337","udp%3A%2F%2Ftracker.coppersurfer.tk%3A6969","udp%3A%2F%2Fexodus.desync.com%3A6969"],"infoHash":"01013c8c3bc44ccb7ee179727bc57b381384dcb7","infoHashBuffer":{"type":"Buffer","data":[1,1,60,140,59,196,76,203,126,225,121,114,123,197,123,56,19,132,220,183]},"announce":[],"urlList":[]}}